<?xml version="1.0" encoding="UTF-8" standalone="no"?>
<!DOCTYPE svg PUBLIC "-//W3C//DTD SVG 1.1//EN" "http://www.w3.org/Graphics/SVG/1.1/DTD/svg11.dtd">
<svg width="100%" height="100%" viewBox="0 0 192 192" version="1.1" xmlns="http://www.w3.org/2000/svg" xmlns:xlink="http://www.w3.org/1999/xlink" xml:space="preserve" xmlns:serif="http://www.serif.com/" style="fill-rule:evenodd;clip-rule:evenodd;stroke-linejoin:round;stroke-miterlimit:2;">
    <g id="Main" transform="matrix(0.1875,0,0,0.1875,0,0)">
        <g transform="matrix(533.333,0,0,533.333,104.533,720.533)">
            <path d="M0.361,-0.708C0.501,-0.708 0.605,-0.678 0.673,-0.619C0.74,-0.559 0.774,-0.473 0.774,-0.362C0.774,-0.289 0.757,-0.226 0.724,-0.172C0.691,-0.117 0.643,-0.075 0.58,-0.045C0.517,-0.015 0.441,-0 0.352,-0C0.336,-0 0.313,-0.001 0.283,-0.002C0.252,-0.003 0.225,-0.003 0.202,-0.003C0.169,-0.003 0.136,-0.003 0.105,-0.003C0.073,-0.002 0.047,-0.001 0.028,-0L0.028,-0.02C0.049,-0.021 0.064,-0.024 0.074,-0.028C0.084,-0.032 0.091,-0.04 0.094,-0.052C0.097,-0.064 0.099,-0.082 0.099,-0.106L0.099,-0.602C0.099,-0.627 0.097,-0.645 0.094,-0.657C0.091,-0.668 0.084,-0.676 0.074,-0.681C0.063,-0.685 0.048,-0.687 0.028,-0.688L0.028,-0.708C0.047,-0.707 0.073,-0.707 0.105,-0.706C0.136,-0.705 0.168,-0.704 0.2,-0.705C0.225,-0.706 0.253,-0.706 0.284,-0.707C0.315,-0.708 0.34,-0.708 0.361,-0.708ZM0.376,-0.69C0.345,-0.69 0.325,-0.684 0.316,-0.673C0.307,-0.662 0.302,-0.639 0.302,-0.604L0.302,-0.104C0.302,-0.069 0.307,-0.046 0.317,-0.035C0.326,-0.024 0.346,-0.018 0.377,-0.018C0.422,-0.018 0.459,-0.031 0.486,-0.058C0.513,-0.084 0.533,-0.122 0.546,-0.173C0.558,-0.224 0.564,-0.285 0.564,-0.358C0.564,-0.47 0.549,-0.553 0.519,-0.608C0.489,-0.663 0.441,-0.69 0.376,-0.69Z" style="fill:rgb(26,22,22);fill-rule:nonzero;"/>
        </g>
        <g transform="matrix(533.333,0,0,533.333,537.067,720.533)">
            <path d="M0.414,-0.722C0.458,-0.722 0.494,-0.716 0.523,-0.703C0.551,-0.69 0.576,-0.674 0.598,-0.657C0.611,-0.647 0.622,-0.646 0.629,-0.654C0.636,-0.661 0.64,-0.679 0.643,-0.708L0.666,-0.708C0.665,-0.681 0.664,-0.649 0.663,-0.611C0.662,-0.572 0.662,-0.521 0.662,-0.458L0.639,-0.458C0.636,-0.49 0.632,-0.519 0.626,-0.544C0.62,-0.568 0.611,-0.591 0.599,-0.61C0.587,-0.629 0.57,-0.646 0.547,-0.661C0.533,-0.67 0.518,-0.678 0.503,-0.683C0.487,-0.688 0.471,-0.691 0.454,-0.691C0.416,-0.691 0.385,-0.681 0.36,-0.66C0.335,-0.639 0.316,-0.611 0.303,-0.578C0.289,-0.544 0.279,-0.507 0.274,-0.468C0.269,-0.428 0.266,-0.389 0.266,-0.352C0.266,-0.315 0.269,-0.276 0.274,-0.237C0.279,-0.197 0.289,-0.16 0.303,-0.127C0.316,-0.093 0.335,-0.066 0.36,-0.045C0.385,-0.024 0.416,-0.013 0.454,-0.013C0.471,-0.013 0.487,-0.016 0.503,-0.022C0.518,-0.027 0.533,-0.034 0.547,-0.043C0.58,-0.064 0.603,-0.091 0.615,-0.126C0.626,-0.161 0.634,-0.205 0.639,-0.26L0.662,-0.26C0.662,-0.195 0.662,-0.142 0.663,-0.102C0.664,-0.061 0.665,-0.027 0.666,-0L0.643,-0C0.64,-0.029 0.636,-0.047 0.63,-0.054C0.623,-0.061 0.613,-0.06 0.598,-0.051C0.573,-0.034 0.547,-0.019 0.52,-0.006C0.492,0.008 0.456,0.014 0.413,0.014C0.338,0.014 0.272,-0 0.215,-0.029C0.158,-0.058 0.114,-0.099 0.083,-0.153C0.052,-0.207 0.036,-0.272 0.036,-0.348C0.036,-0.423 0.052,-0.488 0.085,-0.544C0.117,-0.6 0.161,-0.644 0.218,-0.675C0.275,-0.706 0.34,-0.722 0.414,-0.722Z" style="fill:rgb(26,22,22);fill-rule:nonzero;"/>
        </g>
    </g>
</svg>
